{"title":"Uirá, Um Índio em Busca de Deus (1973),Gustavo Dah","uid":9763618,"size":1546873536,"categoryP":"video","categoryS":"movies","magnet":"?xt=urn:btih:1c0a9f8c6f6988f92653da5101cab61ec847c4dd&amp;dn=Uir%26aacute%3B%2C+Um+%26Iacute%3Bndio+em+Busca+de+Deus+%281973%29%2CGustavo+Dah&amp;tr=udp%3A%2F%2Ftracker.openbittorrent.com%3A80&amp;tr=udp%3A%2F%2Fopen.demonii.com%3A1337&amp;tr=udp%3A%2F%2Ftracker.coppersurfer.tk%3A6969&amp;tr=udp%3A%2F%2Fexodus.desync.com%3A6969","seeders":5,"leechers":1,"uploader":"wesleybl","files":1,"time":1394851828,"description":" &lt;a href=&quot;http://www.imdb.com/title/tt0185737&quot; rel=&quot;nofollow&quot; target=&quot;_NEW&quot;&gt;http://www.imdb.com/title/tt0185737&lt;/a&gt;\n\nVideo\nID                                       : 0\nFormat                                   : xvid\nCodec ID                                 : xvid\nDuration                                 : 1h 28mn\nBit rate                                 : 1 998 Kbps\nWidth                                    : 704 pixels\nHeight                                   : 480 pixels\nDisplay aspect ratio                     : 3:2\nFrame rate                               : 29.970 fps\nStandard                                 : NTSC\nBits/(Pixel*Frame)                       : 0.197\nStream size                              : 1.23 GiB (86%)\n\nAudio\nID                                       : 1\nFormat                                   : MPEG Audio\nFormat version                           : Version 1\nFormat profile                           : Layer 3\nMode                                     : Joint stereo\nMode extension                           : MS Stereo\nCodec ID                                 : 55\nCodec ID/Hint                            : MP3\nDuration                                 : 1h 28mn\nBit rate mode                            : Constant\nBit rate                                 : 320 Kbps\nChannel(s)                               : 2 channels\nSampling rate                            : 48.0 KHz\nCompression mode                         : Lossy\nStream size                              : 202 MiB (14%)\nAlignment                                : Aligned on interleaves\nInterleave, duration                     : 24 ms (0.72 video frame)\nWriting library                          : LAME","torrent":{"xt":"urn:btih:1c0a9f8c6f6988f92653da5101cab61ec847c4dd","amp;dn":"Uir%26aacute%3B%2C+Um+%26Iacute%3Bndio+em+Busca+de+Deus+%281973%29%2CGustavo+Dah","amp;tr":["udp%3A%2F%2Ftracker.openbittorrent.com%3A80","udp%3A%2F%2Fopen.demonii.com%3A1337","udp%3A%2F%2Ftracker.coppersurfer.tk%3A6969","udp%3A%2F%2Fexodus.desync.com%3A6969"],"infoHash":"1c0a9f8c6f6988f92653da5101cab61ec847c4dd","infoHashBuffer":{"type":"Buffer","data":[28,10,159,140,111,105,136,249,38,83,218,81,1,202,182,30,200,71,196,221]},"announce":[],"urlList":[]}}